# xmcd
#
# Track frame offsets:
#	150
#	13318
#	29520
#	42476
#	58968
#	70380
#	88414
#	102191
#	113966
#	128777
#	146596
#	160109
#	176099
#	192849
#	204445
#	217064
#
# Disc length: 3042 seconds
#
# Revision: 0
# Processed by: cddbd v1.5.1PL0 Copyright (c) Steve Scherf et al.
# Submitted via: audiograbber 1.83.01
#
DISCID=fa0be010
DTITLE=Green River and Friends - Sixteen for the road
DYEAR=2005
DGENRE=
TTITLE0=Green River
TTITLE1=Lucky Me, Lucky You
TTITLE2=Neck Of The Woods
TTITLE3=Bitter Sweet
TTITLE4=Down South Dukin'
TTITLE5=Dream Walkin'
TTITLE6=Daddys Money
TTITLE7=Looking Out My Backdoor
TTITLE8=Next Big Thing
TTITLE9=All You Ever Do Is Bring Me Down
TTITLE10=Premonition
TTITLE11=Promised Land
TTITLE12=Born On The Bayou
TTITLE13=Days Of Old
TTITLE14=Jambalaya
TTITLE15=Irjentwat is' immer
EXTD=www.greenriver-music.de
EXTT0=
EXTT1=
EXTT2=
EXTT3=
EXTT4=
EXTT5=
EXTT6=
EXTT7=
EXTT8=
EXTT9=
EXTT10=
EXTT11=
EXTT12=
EXTT13=
EXTT14=
EXTT15=
PLAYORDER=
